<?xml version="1.0" encoding="utf-8"?>
<!-- Generator: Adobe Illustrator 19.0.0, SVG Export Plug-In . SVG Version: 6.00 Build 0)  -->
<svg version="1.1" id="Capa_1" xmlns="http://www.w3.org/2000/svg" xmlns:xlink="http://www.w3.org/1999/xlink" x="0px" y="0px"
	 width="201.4px" height="42px" viewBox="-196 399.9 201.4 42" style="enable-background:new -196 399.9 201.4 42;"
	 xml:space="preserve">
<style type="text/css">
	.st0{fill:#FFFFFF;}
	.st1{fill:#CC2E3E;}
</style>
<circle class="st0" cx="-174.9" cy="420.9" r="17.7"/>
<g id="XMLID_54_">
	<path id="XMLID_73_" class="st0" d="M-136.7,411.9h-11.2c0.5,0.3,1,1.2,1,2v14.2c0,0.8-0.7,1.8-1,1.9h9.4c-0.3-0.1-1-1.1-1-1.9
		v-4.6h3.5c2.3,0,6.6-0.8,6.6-5.8C-129.4,413.8-131.9,411.9-136.7,411.9z M-139.5,421.5v-7.6c1.7,0,3.6,0.1,3.6,3.8
		C-135.9,421.5-138.3,421.5-139.5,421.5z"/>
	<path id="XMLID_70_" class="st0" d="M-117.1,411.5c-6,0-10.8,3.5-10.8,9.4c0,2.4,1.2,9.4,11,9.4c5.7,0,10.8-2.7,10.8-9.4
		C-106.1,415.5-110.3,411.5-117.1,411.5z M-117,428.2c-1.9,0-3.6-2.3-3.6-7.4c0-4.7,1.2-7.4,3.6-7.4c2.5,0,3.7,2.5,3.7,7.4
		C-113.4,425.2-114.4,428.2-117,428.2z"/>
	<path id="XMLID_67_" class="st0" d="M-93.6,411.9h-11.3c0.4,0.3,1,1.2,1,2v14.2c0,0.8-0.7,1.8-1,1.9h9.4c-0.3-0.1-1-1.1-1-1.9v-4.6
		h3.6c2.3,0,6.6-0.8,6.6-5.8C-86.3,413.8-88.9,411.9-93.6,411.9z M-96.5,421.5v-7.6c1.7,0,3.6,0.1,3.6,3.8
		C-92.9,421.5-95.3,421.5-96.5,421.5z"/>
	<path id="XMLID_66_" class="st0" d="M-64.1,411.9h9.4c-0.5,0.2-1,0.9-1.1,1.7v13.6h5.8c1.9-0.1,2.7-0.7,3.4-1.5l-1.8,4.1h-15.8l0,0
		c0.3-0.1,1-1.1,1-1.9v-14C-63.1,413.1-63.6,412.1-64.1,411.9L-64.1,411.9L-64.1,411.9z"/>
	<path id="XMLID_62_" class="st0" d="M-17.3,420.9l5.4,9h9.4c-0.7-0.2-2-2.3-2.6-3.2c-0.5-0.8-1.9-2.7-2.3-3.2
		c-1.1-1.5-1.6-2.1-2.1-2.4l0,0c2.3-0.6,3.5-2.4,3.5-4.7c0-2.3-1.4-4.5-5.9-4.5h-13.9c0.8,0.9,1,1.4,1,2.8v13.6c0,0.2,0,1-0.5,1
		c-0.3,0-0.4-0.1-0.7-0.5l-7-16.9h-7.8c0.3,0.4,0.9,1,0.5,2.1l-5.6,13.5c-0.6,1.3-1.1,1.9-1.7,2.4h4.6c-0.2-0.3-0.3-1.3,0.1-2.5
		l0.8-2.1h6.8l0.8,2.2c0.3,0.8,0.2,1.7-0.3,2.4h18.3c-0.2-0.2-0.9-0.8-0.9-1.8L-17.3,420.9L-17.3,420.9z M-17.4,413.9h1.1
		c2.8,0,3,1.8,3,3.2c0,2-1.1,3.4-3.2,3.4h-1L-17.4,413.9L-17.4,413.9z M-41.2,423.1l2.6-6.8l0,0l2.5,6.8H-41.2z"/>
	<path id="XMLID_61_" class="st0" d="M-66.1,413.9v8.8c0,2.3-1,3.9-2,5c-1.5,1.6-3.8,2.3-7.2,2.3c-6.2,0-9.4-3.2-9.4-7.1v-9.1
		c0-0.8-0.6-1.5-1-1.9h9.4c-0.8,0.5-1,1.4-1,2v8.8c0,2.7,1.8,4.1,4.1,4.1c3,0,4.3-2.1,4.3-4.1v-9.1c0-0.7-0.5-1.4-0.9-1.7h2.1l0,0
		h2.7C-65.7,412.5-66.1,413.2-66.1,413.9L-66.1,413.9L-66.1,413.9z"/>
	<g id="XMLID_55_">
		<path id="XMLID_56_" class="st0" d="M-0.9,426.8L-0.9,426.8c0-1.7,1.4-3.2,3.2-3.2s3.2,1.4,3.2,3.2l0,0c0,1.7-1.4,3.2-3.2,3.2
			S-0.9,428.5-0.9,426.8z M5,426.8L5,426.8c0-1.6-1.2-2.8-2.8-2.8s-2.8,1.3-2.8,2.8l0,0c0,1.5,1.2,2.8,2.8,2.8S5,428.3,5,426.8z
			 M1,425.1h1.4c0.7,0,1.2,0.3,1.2,1c0,0.5-0.3,0.9-0.7,1l0.9,1.2H3.1l-0.8-1.1H1.6v1.1H1V425.1z M2.4,426.7c0.4,0,0.7-0.2,0.7-0.5
			s-0.2-0.5-0.7-0.5H1.6v1.1h0.8V426.7z"/>
	</g>
</g>
<g id="XMLID_76_">
	<path id="XMLID_77_" class="st1" d="M-196,399.9v21v21h42.1v-21l0,0v-21H-196z M-186.7,412.1c3.3,1.3,3.9,5.8,0,7.8V412.1z
		 M-186.7,421.4c3.8,2,3.4,6.5,0,8.2V421.4z M-184.6,420.6L-184.6,420.6c0,0,1.9-1.2,2.4-3.5v7
		C-182.7,421.9-184.3,420.8-184.6,420.6z M-180.2,407.9c4.7,3.1,5.1,12.4,0,16V407.9z M-180.2,426.1c1.2-0.7,4.3-2.9,5.2-7.4v18.5
		c-1.8,0-3.6-0.3-5.2-0.9V426.1z M-167.7,410.7c-0.8-2.4-2.3-4.2-4.6-5.8c1.6,0.3,3.2,0.8,4.6,1.5V410.7z M-172.9,406.8
		c5.5,3.4,5.3,13.2,0,17V406.8z M-172.9,426.1c1.2-0.7,3.9-2.8,5.2-6.7v16.1c-1.6,0.8-3.3,1.3-5.2,1.6
		C-172.9,437.1-172.9,426.1-172.9,426.1z M-165.7,409.4c3.8,2.7,4.4,9.6,0,13.1V409.4z M-175,413.3c-0.6-3.2-2.3-5.6-5-7.8
		c1.6-0.5,3.3-0.8,5-0.8V413.3z M-182.3,406.4v8.5c-0.5-2.8-3.1-4.3-4.8-4.9C-185.7,408.5-184.1,407.3-182.3,406.4z M-188.8,412.3
		v17.3c-1.6-2.5-2.5-5.5-2.5-8.6C-191.3,417.8-190.4,414.8-188.8,412.3z M-187.1,431.8h0.1l0,0l0,0c0.1,0,0.2-0.1,0.2-0.1l0,0
		c2.1-0.8,4-2.7,4.5-5.5v9.2C-184.1,434.6-185.7,433.3-187.1,431.8z M-165.7,434.3v-9.9l3.3,6.8
		C-163.3,432.4-164.4,433.4-165.7,434.3z M-161,429.2l-2.9-5.8l0,0c1.4-1.4,3.2-3.5,3.2-7.1c0-1.9-0.3-3.4-0.9-4.7
		c1.8,2.6,2.9,5.8,2.9,9.3C-158.7,424-159.6,426.8-161,429.2z"/>
</g>
</svg>
